# xmcd CD database file generated by OrangeCD 6.1
#
# Track frame offsets:
#	150
#	12219
#	22706
#	35694
#	45101
#	56040
#	68945
#	79652
#	92404
#	106413
#	120087
#	128373
#	143616
#	155278
#	166112
#
# Disc length: 2356 seconds
#
# Revision: 0
# Processed by: cddbd v1.5.2PL0 Copyright (c) Steve Scherf et al.
# Submitted via: OrangeCD 6.1
#
DISCID=9e09320f
DTITLE=Various Artist - How I Love Them Old Songs
DYEAR=1972
DGENRE=Country
TTITLE0=Jim Reeves - Missing You
TTITLE1=Connie Smith - Once a Day
TTITLE2=Bobby Bare - Detroit City
TTITLE3=Waylon Jennings - Brown Eyed Handsome Man
TTITLE4=Porter Wagoner - Green, Green Grass of Home
TTITLE5=Hank Snow - The Golden Rocket
TTITLE6=Jim Ed Brown - Pop a Top
TTITLE7=Archie Campbell and Lorene Mann - Tell It Like It is
TTITLE8=Jim Ed Brown - Morning
TTITLE9=Dottie West - Paper Mansions
TTITLE10=Roger Miller - You Don't Want My Love
TTITLE11=Dolly Parton - Mule Skinner Blues
TTITLE12=Leon Ashley - Laura (What's He Got That I Ain't Got)
TTITLE13=Nat Stuckey - Plastic Saddle
TTITLE14=Jerry Reed - Amos Moses
EXTD=
EXTT0=
EXTT1=
EXTT2=
EXTT3=
EXTT4=
EXTT5=
EXTT6=
EXTT7=
EXTT8=
EXTT9=
EXTT10=
EXTT11=
EXTT12=
EXTT13=
EXTT14=
PLAYORDER=
